# 3ds Max Wavefront OBJ Exporter v0.97b - (c)2007 guruware
# File Created: 18.03.2020 10:44:29

mtllib a1.mtl

#
# object Sphere001
#

v  160.8129 18.1238 1397.0974
v  160.8129 15.6957 1388.0355
v  156.2820 15.6957 1389.2495
v  152.9651 15.6957 1392.5664
v  151.7510 15.6957 1397.0974
v  152.9651 15.6957 1401.6284
v  156.2820 15.6957 1404.9453
v  160.8129 15.6957 1406.1593
v  165.3439 15.6957 1404.9453
v  168.6608 15.6957 1401.6284
v  169.8749 15.6957 1397.0974
v  168.6608 15.6957 1392.5664
v  165.3439 15.6957 1389.2495
v  160.8129 9.0619 1381.4017
v  152.9651 9.0619 1383.5045
v  147.2201 9.0619 1389.2495
v  145.1172 9.0619 1397.0974
v  147.2201 9.0619 1404.9453
v  152.9651 9.0619 1410.6903
v  160.8129 9.0619 1412.7931
v  168.6608 9.0619 1410.6903
v  174.4058 9.0619 1404.9453
v  176.5086 9.0619 1397.0974
v  174.4058 9.0619 1389.2496
v  168.6608 9.0619 1383.5045
v  160.8129 -0.0000 1378.9736
v  151.7510 -0.0000 1381.4017
v  145.1172 -0.0000 1388.0355
v  142.6891 -0.0000 1397.0974
v  145.1172 -0.0000 1406.1593
v  151.7510 -0.0000 1412.7931
v  160.8129 -0.0000 1415.2212
v  169.8748 -0.0000 1412.7931
v  176.5086 -0.0000 1406.1593
v  178.9368 -0.0000 1397.0974
v  176.5087 -0.0000 1388.0355
v  169.8749 -0.0000 1381.4017
v  160.8129 -9.0619 1381.4017
v  152.9651 -9.0619 1383.5045
v  147.2201 -9.0619 1389.2495
v  145.1172 -9.0619 1397.0974
v  147.2201 -9.0619 1404.9453
v  152.9651 -9.0619 1410.6903
v  160.8129 -9.0619 1412.7931
v  168.6608 -9.0619 1410.6903
v  174.4058 -9.0619 1404.9453
v  176.5086 -9.0619 1397.0974
v  174.4058 -9.0619 1389.2496
v  168.6608 -9.0619 1383.5045
v  160.8129 -15.6957 1388.0355
v  156.2820 -15.6957 1389.2495
v  152.9651 -15.6957 1392.5664
v  151.7510 -15.6957 1397.0974
v  152.9651 -15.6957 1401.6284
v  156.2820 -15.6957 1404.9453
v  160.8129 -15.6957 1406.1593
v  165.3439 -15.6957 1404.9453
v  168.6608 -15.6957 1401.6284
v  169.8749 -15.6957 1397.0974
v  168.6608 -15.6957 1392.5664
v  165.3439 -15.6957 1389.2495
v  160.8129 -18.1238 1397.0974
# 62 vertices

vn 0.0000 1.0000 -0.0000
vn 0.0000 0.8474 -0.5309
vn -0.2654 0.8474 -0.4598
vn -0.4598 0.8474 -0.2654
vn -0.5309 0.8474 -0.0000
vn -0.4598 0.8474 0.2654
vn -0.2655 0.8474 0.4598
vn -0.0000 0.8474 0.5309
vn 0.2654 0.8474 0.4598
vn 0.4598 0.8474 0.2655
vn 0.5309 0.8474 0.0000
vn 0.4598 0.8474 -0.2654
vn 0.2655 0.8474 -0.4598
vn 0.0000 0.4823 -0.8760
vn -0.4380 0.4823 -0.7586
vn -0.7586 0.4823 -0.4380
vn -0.8760 0.4823 -0.0000
vn -0.7586 0.4823 0.4380
vn -0.4380 0.4823 0.7586
vn -0.0000 0.4823 0.8760
vn 0.4380 0.4823 0.7586
vn 0.7586 0.4823 0.4380
vn 0.8760 0.4823 0.0000
vn 0.7586 0.4823 -0.4380
vn 0.4380 0.4823 -0.7586
vn 0.0000 -0.0000 -1.0000
vn -0.5000 -0.0000 -0.8660
vn -0.8660 -0.0000 -0.5000
vn -1.0000 -0.0000 -0.0000
vn -0.8660 -0.0000 0.5000
vn -0.5000 -0.0000 0.8660
vn -0.0000 -0.0000 1.0000
vn 0.5000 -0.0000 0.8660
vn 0.8660 -0.0000 0.5000
vn 1.0000 -0.0000 0.0000
vn 0.8660 -0.0000 -0.5000
vn 0.5000 -0.0000 -0.8660
vn 0.0000 -0.4823 -0.8760
vn -0.4380 -0.4823 -0.7586
vn -0.7586 -0.4823 -0.4380
vn -0.8760 -0.4823 -0.0000
vn -0.7586 -0.4823 0.4380
vn -0.4380 -0.4823 0.7586
vn -0.0000 -0.4823 0.8760
vn 0.4380 -0.4823 0.7586
vn 0.7586 -0.4823 0.4380
vn 0.8760 -0.4823 0.0000
vn 0.7586 -0.4823 -0.4380
vn 0.4380 -0.4823 -0.7586
vn 0.0000 -0.8474 -0.5309
vn -0.2654 -0.8474 -0.4598
vn -0.4598 -0.8474 -0.2654
vn -0.5309 -0.8474 -0.0000
vn -0.4598 -0.8474 0.2654
vn -0.2655 -0.8474 0.4598
vn -0.0000 -0.8474 0.5309
vn 0.2654 -0.8474 0.4598
vn 0.4598 -0.8474 0.2655
vn 0.5309 -0.8474 0.0000
vn 0.4598 -0.8474 -0.2654
vn 0.2655 -0.8474 -0.4598
vn -0.0000 -1.0000 -0.0000
# 62 vertex normals

vt 0.5000 0.5000 1.0000
vt 0.5000 0.7500 0.9330
vt 0.3750 0.7165 0.9330
vt 0.2835 0.6250 0.9330
vt 0.2500 0.5000 0.9330
vt 0.2835 0.3750 0.9330
vt 0.3750 0.2835 0.9330
vt 0.5000 0.2500 0.9330
vt 0.6250 0.2835 0.9330
vt 0.7165 0.3750 0.9330
vt 0.7500 0.5000 0.9330
vt 0.7165 0.6250 0.9330
vt 0.6250 0.7165 0.9330
vt 0.5000 0.9330 0.7500
vt 0.2835 0.8750 0.7500
vt 0.1250 0.7165 0.7500
vt 0.0670 0.5000 0.7500
vt 0.1250 0.2835 0.7500
vt 0.2835 0.1250 0.7500
vt 0.5000 0.0670 0.7500
vt 0.7165 0.1250 0.7500
vt 0.8750 0.2835 0.7500
vt 0.9330 0.5000 0.7500
vt 0.8750 0.7165 0.7500
vt 0.7165 0.8750 0.7500
vt 0.5000 1.0000 0.5000
vt 0.2500 0.9330 0.5000
vt 0.0670 0.7500 0.5000
vt 0.0000 0.5000 0.5000
vt 0.0670 0.2500 0.5000
vt 0.2500 0.0670 0.5000
vt 0.5000 0.0000 0.5000
vt 0.7500 0.0670 0.5000
vt 0.9330 0.2500 0.5000
vt 1.0000 0.5000 0.5000
vt 0.9330 0.7500 0.5000
vt 0.7500 0.9330 0.5000
vt 0.5000 0.9330 0.2500
vt 0.2835 0.8750 0.2500
vt 0.1250 0.7165 0.2500
vt 0.0670 0.5000 0.2500
vt 0.1250 0.2835 0.2500
vt 0.2835 0.1250 0.2500
vt 0.5000 0.0670 0.2500
vt 0.7165 0.1250 0.2500
vt 0.8750 0.2835 0.2500
vt 0.9330 0.5000 0.2500
vt 0.8750 0.7165 0.2500
vt 0.7165 0.8750 0.2500
vt 0.5000 0.7500 0.0670
vt 0.3750 0.7165 0.0670
vt 0.2835 0.6250 0.0670
vt 0.2500 0.5000 0.0670
vt 0.2835 0.3750 0.0670
vt 0.3750 0.2835 0.0670
vt 0.5000 0.2500 0.0670
vt 0.6250 0.2835 0.0670
vt 0.7165 0.3750 0.0670
vt 0.7500 0.5000 0.0670
vt 0.7165 0.6250 0.0670
vt 0.6250 0.7165 0.0670
vt 0.5000 0.5000 0.0000
# 62 texture coords

o Sphere001
g Sphere001
usemtl wire_028149177
s 1
f 1/1/1 2/2/2 3/3/3 
f 1/1/1 3/3/3 4/4/4 
f 1/1/1 4/4/4 5/5/5 
f 1/1/1 5/5/5 6/6/6 
f 1/1/1 6/6/6 7/7/7 
f 1/1/1 7/7/7 8/8/8 
f 1/1/1 8/8/8 9/9/9 
f 1/1/1 9/9/9 10/10/10 
f 1/1/1 10/10/10 11/11/11 
f 1/1/1 11/11/11 12/12/12 
f 1/1/1 12/12/12 13/13/13 
f 1/1/1 13/13/13 2/2/2 
f 2/2/2 14/14/14 15/15/15 3/3/3 
f 3/3/3 15/15/15 16/16/16 4/4/4 
f 4/4/4 16/16/16 17/17/17 5/5/5 
f 5/5/5 17/17/17 18/18/18 6/6/6 
f 6/6/6 18/18/18 19/19/19 7/7/7 
f 7/7/7 19/19/19 20/20/20 8/8/8 
f 8/8/8 20/20/20 21/21/21 9/9/9 
f 9/9/9 21/21/21 22/22/22 10/10/10 
f 10/10/10 22/22/22 23/23/23 11/11/11 
f 11/11/11 23/23/23 24/24/24 12/12/12 
f 12/12/12 24/24/24 25/25/25 13/13/13 
f 13/13/13 25/25/25 14/14/14 2/2/2 
f 14/14/14 26/26/26 27/27/27 15/15/15 
f 15/15/15 27/27/27 28/28/28 16/16/16 
f 16/16/16 28/28/28 29/29/29 17/17/17 
f 17/17/17 29/29/29 30/30/30 18/18/18 
f 18/18/18 30/30/30 31/31/31 19/19/19 
f 19/19/19 31/31/31 32/32/32 20/20/20 
f 20/20/20 32/32/32 33/33/33 21/21/21 
f 21/21/21 33/33/33 34/34/34 22/22/22 
f 22/22/22 34/34/34 35/35/35 23/23/23 
f 23/23/23 35/35/35 36/36/36 24/24/24 
f 24/24/24 36/36/36 37/37/37 25/25/25 
f 25/25/25 37/37/37 26/26/26 14/14/14 
f 26/26/26 38/38/38 39/39/39 27/27/27 
f 27/27/27 39/39/39 40/40/40 28/28/28 
f 28/28/28 40/40/40 41/41/41 29/29/29 
f 29/29/29 41/41/41 42/42/42 30/30/30 
f 30/30/30 42/42/42 43/43/43 31/31/31 
f 31/31/31 43/43/43 44/44/44 32/32/32 
f 32/32/32 44/44/44 45/45/45 33/33/33 
f 33/33/33 45/45/45 46/46/46 34/34/34 
f 34/34/34 46/46/46 47/47/47 35/35/35 
f 35/35/35 47/47/47 48/48/48 36/36/36 
f 36/36/36 48/48/48 49/49/49 37/37/37 
f 37/37/37 49/49/49 38/38/38 26/26/26 
f 38/38/38 50/50/50 51/51/51 39/39/39 
f 39/39/39 51/51/51 52/52/52 40/40/40 
f 40/40/40 52/52/52 53/53/53 41/41/41 
f 41/41/41 53/53/53 54/54/54 42/42/42 
f 42/42/42 54/54/54 55/55/55 43/43/43 
f 43/43/43 55/55/55 56/56/56 44/44/44 
f 44/44/44 56/56/56 57/57/57 45/45/45 
f 45/45/45 57/57/57 58/58/58 46/46/46 
f 46/46/46 58/58/58 59/59/59 47/47/47 
f 47/47/47 59/59/59 60/60/60 48/48/48 
f 48/48/48 60/60/60 61/61/61 49/49/49 
f 49/49/49 61/61/61 50/50/50 38/38/38 
f 62/62/62 51/51/51 50/50/50 
f 62/62/62 52/52/52 51/51/51 
f 62/62/62 53/53/53 52/52/52 
f 62/62/62 54/54/54 53/53/53 
f 62/62/62 55/55/55 54/54/54 
f 62/62/62 56/56/56 55/55/55 
f 62/62/62 57/57/57 56/56/56 
f 62/62/62 58/58/58 57/57/57 
f 62/62/62 59/59/59 58/58/58 
f 62/62/62 60/60/60 59/59/59 
f 62/62/62 61/61/61 60/60/60 
f 62/62/62 50/50/50 61/61/61 
# 48 polygons - 24 triangles

